<svg xmlns="http://www.w3.org/2000/svg" viewBox="0 0 512 512">
  <defs>
    <linearGradient id="bg" x1="0%" y1="0%" x2="100%" y2="100%">
      <stop offset="0%" style="stop-color:#4F46E5"/>
      <stop offset="100%" style="stop-color:#7C3AED"/>
    </linearGradient>
  </defs>
  <rect width="512" height="512" rx="128" fill="url(#bg)"/>
  <g fill="white">
    <!-- Speech bubble -->
    <path d="M256 80c-88.4 0-160 64.5-160 144s71.6 144 160 144c18.9 0 37-2.6 54-7.4l74 37-18.5-62.1C391.6 310.8 416 274 416 224c0-79.5-71.6-144-160-144z" fill-opacity="0.2"/>
    <path d="M256 96c-79.5 0-144 57.4-144 128s64.5 128 144 128c17.7 0 34.6-2.4 50.5-6.8l4.5-1.3 4.3 2.2 55.6 27.8-13.9-46.6-2.2-7.3 4.8-5.7C378.4 293.2 400 260.1 400 224c0-70.6-64.5-128-144-128z"/>
    <!-- Microphone icon -->
    <rect x="232" y="160" width="48" height="80" rx="24"/>
    <path d="M208 220v12c0 26.5 21.5 48 48 48s48-21.5 48-48v-12" stroke="white" stroke-width="12" fill="none" stroke-linecap="round"/>
    <line x1="256" y1="280" x2="256" y2="300" stroke="white" stroke-width="12" stroke-linecap="round"/>
    <line x1="232" y1="300" x2="280" y2="300" stroke="white" stroke-width="12" stroke-linecap="round"/>
  </g>
</svg>